# xmcd CD database file
#
# Track frame offsets:
#	150
#	40206
#	72044
#	102140
#	144038
#	175202
#
# Disc length: 2666 seconds
#
# Revision: 0
# Processed by: cddbd v1.5.2PL0 Copyright (c) Steve Scherf et al.
# Submitted via: CDex 1.51
#
DISCID=440a6806
DTITLE=Matthew Halsall - On The Go
DYEAR=2011
DGENRE=Jazz
TTITLE0=Music For A Dancing Mind
TTITLE1=Song For Charlie
TTITLE2=The End Of Dukkha
TTITLE3=Samatha
TTITLE4=The Journey Home
TTITLE5=The Move
EXTD=YEAR: 2011
EXTT0=
EXTT1=
EXTT2=
EXTT3=
EXTT4=
EXTT5=
PLAYORDER=
